<svg width="20" height="20" viewBox="0 0 20 20" fill="none" xmlns="http://www.w3.org/2000/svg">
<path fill-rule="evenodd" clip-rule="evenodd" d="M9.974 0C4.465 0 0 4.5035 0 10.06C0 14.504 2.857 18.2752 6.821 19.6066C7.32 19.6974 7.5 19.3878 7.5 19.1215C7.5 18.8824 7.492 18.249 7.489 17.4108C4.714 18.018 4.128 16.0613 4.128 16.0613C3.676 14.8994 3.021 14.5897 3.021 14.5897C2.116 13.9654 3.09 13.9795 3.09 13.9795C4.092 14.0501 4.617 15.0164 4.617 15.0164C5.507 16.5535 6.953 16.1097 7.519 15.8525C7.61 15.202 7.87 14.7582 8.154 14.507C5.94 14.2539 3.612 13.3905 3.612 9.53451C3.612 8.43814 4.001 7.53845 4.636 6.83645C4.535 6.58126 4.19 5.55751 4.735 4.17368C4.735 4.17368 5.572 3.90236 7.477 5.20349C8.275 4.98058 9.126 4.86862 9.973 4.86459C10.822 4.86862 11.674 4.98058 12.469 5.20349C14.375 3.90135 15.211 4.17368 15.211 4.17368C15.756 5.55751 15.414 6.58126 15.31 6.83645C15.95 7.53845 16.334 8.43713 16.334 9.53451C16.334 13.4006 14.004 14.2498 11.782 14.499C12.137 14.8096 12.457 15.4229 12.457 16.3609C12.457 17.7064 12.445 18.7917 12.445 19.1215C12.445 19.3908 12.623 19.7034 13.132 19.6046C17.094 18.2712 19.948 14.503 19.948 10.06C19.948 4.5035 15.483 0 9.974 0Z" fill="#0B315E"/>
</svg>
