<svg width="18" height="19" viewBox="0 0 18 19" fill="none" xmlns="http://www.w3.org/2000/svg">
<path d="M18 18.1553H14V11.347C14 10.2793 12.8121 9.38608 11.7535 9.38608C10.6949 9.38608 10 10.2793 10 11.347V18.1553H6.00001V6.05176H10V8.06901C10.6623 6.98834 12.3564 6.29108 13.525 6.29108C15.9965 6.29108 18 8.35001 18 10.8427V18.1553ZM4 18.1553H0V6.05176H4V18.1553ZM2.00001 0C3.10458 0 4.00001 0.903154 4.00001 2.01725C4.00001 3.13135 3.10458 4.03451 2.00001 4.03451C0.89544 4.03451 1.00136e-05 3.13135 1.00136e-05 2.01725C1.00136e-05 0.903154 0.89544 0 2.00001 0Z" fill="#0B315E"/>
</svg>
