<svg width="54" height="51" viewBox="0 0 54 51" fill="none" xmlns="http://www.w3.org/2000/svg">
<rect x="0.4" y="0.4" width="53.2" height="50.2" rx="4.6" stroke="white" stroke-opacity="0.51" stroke-width="0.8"/>
<rect x="3.4" y="3.4" width="47.2" height="44.2" rx="4.6" stroke="white" stroke-opacity="0.76" stroke-width="0.8"/>
<rect x="7.4" y="6.4" width="39.2" height="38.2" rx="4.6" stroke="white" stroke-width="0.8"/>
<path d="M11.7563 25.8C11.7563 24.9333 11.9097 24.08 12.2163 23.24C12.5363 22.4 12.9963 21.64 13.5963 20.96C14.1963 20.28 14.9297 19.74 15.7963 19.34C16.663 18.9267 17.6497 18.72 18.7563 18.72C20.0497 18.72 21.1763 19.0067 22.1363 19.58C23.0963 20.1533 23.8097 20.9 24.2763 21.82L22.1563 23.28C21.9163 22.7467 21.603 22.3267 21.2163 22.02C20.8297 21.7133 20.4097 21.4933 19.9563 21.36C19.5163 21.2267 19.0897 21.16 18.6763 21.16C17.983 21.16 17.3763 21.3 16.8563 21.58C16.3497 21.86 15.923 22.2267 15.5763 22.68C15.2297 23.1333 14.9697 23.64 14.7963 24.2C14.6363 24.76 14.5563 25.32 14.5563 25.88C14.5563 26.72 14.7297 27.5067 15.0763 28.24C15.423 28.96 15.9097 29.5467 16.5363 30C17.163 30.4533 17.8897 30.68 18.7163 30.68C19.143 30.68 19.583 30.6067 20.0363 30.46C20.503 30.3133 20.9297 30.08 21.3163 29.76C21.703 29.44 22.003 29.0267 22.2163 28.52L24.4763 29.82C24.183 30.5267 23.723 31.1267 23.0963 31.62C22.4697 32.1 21.763 32.4733 20.9763 32.74C20.1897 32.9933 19.4097 33.12 18.6363 33.12C17.623 33.12 16.6963 32.9133 15.8563 32.5C15.0297 32.0733 14.3097 31.5133 13.6963 30.82C13.083 30.1133 12.603 29.3267 12.2563 28.46C11.923 27.58 11.7563 26.6933 11.7563 25.8ZM29.0273 33V18.8H34.1873C35.7339 18.8 37.0273 19.12 38.0673 19.76C39.1073 20.3867 39.8873 21.24 40.4073 22.32C40.9273 23.3867 41.1873 24.5733 41.1873 25.88C41.1873 27.32 40.9006 28.5733 40.3273 29.64C39.7539 30.7067 38.9406 31.5333 37.8873 32.12C36.8339 32.7067 35.6006 33 34.1873 33H29.0273ZM38.4073 25.88C38.4073 24.96 38.2406 24.1533 37.9073 23.46C37.5739 22.7533 37.0939 22.2067 36.4673 21.82C35.8406 21.42 35.0806 21.22 34.1873 21.22H31.7873V30.58H34.1873C35.0939 30.58 35.8606 30.38 36.4873 29.98C37.1139 29.5667 37.5873 29.0067 37.9073 28.3C38.2406 27.58 38.4073 26.7733 38.4073 25.88Z" fill="white"/>
</svg>
